<svg xmlns="http://www.w3.org/2000/svg" xmlns:xlink="http://www.w3.org/1999/xlink" width="427px" height="500px" viewBox="0 0 427 500"><g id="surface1"><path style=" stroke:none;fill-rule:nonzero;fill:rgb(16.470589%,12.156863%,60.392159%);fill-opacity:1;" d="M 207.035156 500 L 207.261719 432.78125 C 145.9375 428.90625 96.015625 406.953125 57.496094 366.917969 C 18.976562 326.878906 -0.175781 277.386719 0.0390625 218.4375 C 0.234375 156.457031 21.105469 104.503906 62.652344 62.574219 C 104.203125 20.640625 155.652344 -0.214844 217 0 C 276.496094 0.195312 326.417969 21.546875 366.765625 64.058594 C 407.109375 106.566406 427.175781 159.125 426.960938 221.730469 C 426.746094 286.789062 406.765625 344.421875 367.023438 394.636719 C 327.277344 444.851562 273.949219 479.972656 207.035156 500 Z M 207.035156 500 "></path><path style=" stroke:none;fill-rule:nonzero;fill:rgb(100%,100%,100%);fill-opacity:1;" d="M 319.496094 133.246094 L 319.496094 346.425781 L 239.632812 346.425781 L 239.632812 213.179688 L 106.535156 213.179688 L 106.535156 133.246094 Z M 319.496094 133.246094 "></path></g></svg>